P3
# This is a black and white image.
30 30
255
  0  0  0 255 255 255  0  0  0 255 255 255  0  0  0 255 255 255  0  0  0 255 255 255  0  0  0 255 255 255  0  0  0 255 255 255  0  0  0 255 255 255  0  0  0 255 255 255  0  0  0 255 255 255  0  0  0 255 255 255  0  0  0 255 255 255  0  0  0 255 255 255  0  0  0 255 255 255  0  0  0 255 255 255  0  0  0 255 255 255
  0  0  0 255 255 255  0  0  0 255 255 255  0  0  0 255 255 255  0  0  0 255 255 255  0  0  0 255 255 255  0  0  0 255 255 255  0  0  0 255 255 255  0  0  0 255 255 255  0  0  0 255 255 255  0  0  0 255 255 255  0  0  0 255 255 255  0  0  0 255 255 255  0  0  0 255 255 255  0  0  0 255 255 255  0  0  0 255 255 255
  0  0  0 255 255 255  0  0  0 255 255 255  0  0  0 255 255 255  0  0  0 255 255 255  0  0  0 255 255 255  0  0  0 255 255 255  0  0  0 255 255 255  0  0  0 255 255 255  0  0  0 255 255 255  0  0  0 255 255 255  0  0  0 255 255 255  0  0  0 255 255 255  0  0  0 255 255 255  0  0  0 255 255 255  0  0  0 255 255 255
  0  0  0 255 255 255  0  0  0 255 255 255  0  0  0 255 255 255  0  0  0 255 255 255  0  0  0 255 255 255  0  0  0 255 255 255  0  0  0 255 255 255  0  0  0 255 255 255  0  0  0 255 255 255  0  0  0 255 255 255  0  0  0 255 255 255  0  0  0 255 255 255  0  0  0 255 255 255  0  0  0 255 255 255  0  0  0 255 255 255
  0  0  0 255 255 255  0  0  0 255 255 255  0  0  0 255 255 255  0  0  0 255 255 255  0  0  0 255 255 255  0  0  0 255 255 255  0  0  0 255 255 255  0  0  0 255 255 255  0  0  0 255 255 255  0  0  0 255 255 255  0  0  0 255 255 255  0  0  0 255 255 255  0  0  0 255 255 255  0  0  0 255 255 255  0  0  0 255 255 255
  0  0  0 255 255 255  0  0  0 255 255 255  0  0  0 255 255 255  0  0  0 255 255 255  0  0  0 255 255 255  0  0  0 255 255 255  0  0  0 255 255 255  0  0  0 255 255 255  0  0  0 255 255 255  0  0  0 255 255 255  0  0  0 255 255 255  0  0  0 255 255 255  0  0  0 255 255 255  0  0  0 255 255 255  0  0  0 255 255 255
  0  0  0 255 255 255  0  0  0 255 255 255  0  0  0 255 255 255  0  0  0 255 255 255  0  0  0 255 255 255  0  0  0 255 255 255  0  0  0 255 255 255  0  0  0 255 255 255  0  0  0 255 255 255  0  0  0 255 255 255  0  0  0 255 255 255  0  0  0 255 255 255  0  0  0 255 255 255  0  0  0 255 255 255  0  0  0 255 255 255
  0  0  0 255 255 255  0  0  0 255 255 255  0  0  0 255 255 255  0  0  0 255 255 255  0  0  0 255 255 255  0  0  0 255 255 255  0  0  0 255 255 255  0  0  0 255 255 255  0  0  0 255 255 255  0  0  0 255 255 255  0  0  0 255 255 255  0  0  0 255 255 255  0  0  0 255 255 255  0  0  0 255 255 255  0  0  0 255 255 255
  0  0  0 255 255 255  0  0  0 255 255 255  0  0  0 255 255 255  0  0  0 255 255 255  0  0  0 255 255 255  0  0  0 255 255 255  0  0  0 255 255 255  0  0  0 255 255 255  0  0  0 255 255 255  0  0  0 255 255 255  0  0  0 255 255 255  0  0  0 255 255 255  0  0  0 255 255 255  0  0  0 255 255 255  0  0  0 255 255 255
  0  0  0 255 255 255  0  0  0 255 255 255  0  0  0 255 255 255  0  0  0 255 255 255  0  0  0 255 255 255  0  0  0 255 255 255  0  0  0 255 255 255  0  0  0 255 255 255  0  0  0 255 255 255  0  0  0 255 255 255  0  0  0 255 255 255  0  0  0 255 255 255  0  0  0 255 255 255  0  0  0 255 255 255  0  0  0 255 255 255
  0  0  0 255 255 255  0  0  0 255 255 255  0  0  0 255 255 255  0  0  0 255 255 255  0  0  0 255 255 255  0  0  0 255 255 255  0  0  0 255 255 255  0  0  0 255 255 255  0  0  0 255 255 255  0  0  0 255 255 255  0  0  0 255 255 255  0  0  0 255 255 255  0  0  0 255 255 255  0  0  0 255 255 255  0  0  0 255 255 255
  0  0  0 255 255 255  0  0  0 255 255 255  0  0  0 255 255 255  0  0  0 255 255 255  0  0  0 255 255 255  0  0  0 255 255 255  0  0  0 255 255 255  0  0  0 255 255 255  0  0  0 255 255 255  0  0  0 255 255 255  0  0  0 255 255 255  0  0  0 255 255 255  0  0  0 255 255 255  0  0  0 255 255 255  0  0  0 255 255 255
  0  0  0 255 255 255  0  0  0 255 255 255  0  0  0 255 255 255  0  0  0 255 255 255  0  0  0 255 255 255  0  0  0 255 255 255  0  0  0 255 255 255  0  0  0 255 255 255  0  0  0 255 255 255  0  0  0 255 255 255  0  0  0 255 255 255  0  0  0 255 255 255  0  0  0 255 255 255  0  0  0 255 255 255  0  0  0 255 255 255
  0  0  0 255 255 255  0  0  0 255 255 255  0  0  0 255 255 255  0  0  0 255 255 255  0  0  0 255 255 255  0  0  0 255 255 255  0  0  0 255 255 255  0  0  0 255 255 255  0  0  0 255 255 255  0  0  0 255 255 255  0  0  0 255 255 255  0  0  0 255 255 255  0  0  0 255 255 255  0  0  0 255 255 255  0  0  0 255 255 255
  0  0  0 255 255 255  0  0  0 255 255 255  0  0  0 255 255 255  0  0  0 255 255 255  0  0  0 255 255 255  0  0  0 255 255 255  0  0  0 255 255 255  0  0  0 255 255 255  0  0  0 255 255 255  0  0  0 255 255 255  0  0  0 255 255 255  0  0  0 255 255 255  0  0  0 255 255 255  0  0  0 255 255 255  0  0  0 255 255 255
  0  0  0 255 255 255  0  0  0 255 255 255  0  0  0 255 255 255  0  0  0 255 255 255  0  0  0 255 255 255  0  0  0 255 255 255  0  0  0 255 255 255  0  0  0 255 255 255  0  0  0 255 255 255  0  0  0 255 255 255  0  0  0 255 255 255  0  0  0 255 255 255  0  0  0 255 255 255  0  0  0 255 255 255  0  0  0 255 255 255
  0  0  0 255 255 255  0  0  0 255 255 255  0  0  0 255 255 255  0  0  0 255 255 255  0  0  0 255 255 255  0  0  0 255 255 255  0  0  0 255 255 255  0  0  0 255 255 255  0  0  0 255 255 255  0  0  0 255 255 255  0  0  0 255 255 255  0  0  0 255 255 255  0  0  0 255 255 255  0  0  0 255 255 255  0  0  0 255 255 255
  0  0  0 255 255 255  0  0  0 255 255 255  0  0  0 255 255 255  0  0  0 255 255 255  0  0  0 255 255 255  0  0  0 255 255 255  0  0  0 255 255 255  0  0  0 255 255 255  0  0  0 255 255 255  0  0  0 255 255 255  0  0  0 255 255 255  0  0  0 255 255 255  0  0  0 255 255 255  0  0  0 255 255 255  0  0  0 255 255 255
  0  0  0 255 255 255  0  0  0 255 255 255  0  0  0 255 255 255  0  0  0 255 255 255  0  0  0 255 255 255  0  0  0 255 255 255  0  0  0 255 255 255  0  0  0 255 255 255  0  0  0 255 255 255  0  0  0 255 255 255  0  0  0 255 255 255  0  0  0 255 255 255  0  0  0 255 255 255  0  0  0 255 255 255  0  0  0 255 255 255
  0  0  0 255 255 255  0  0  0 255 255 255  0  0  0 255 255 255  0  0  0 255 255 255  0  0  0 255 255 255  0  0  0 255 255 255  0  0  0 255 255 255  0  0  0 255 255 255  0  0  0 255 255 255  0  0  0 255 255 255  0  0  0 255 255 255  0  0  0 255 255 255  0  0  0 255 255 255  0  0  0 255 255 255  0  0  0 255 255 255
  0  0  0 255 255 255  0  0  0 255 255 255  0  0  0 255 255 255  0  0  0 255 255 255  0  0  0 255 255 255  0  0  0 255 255 255  0  0  0 255 255 255  0  0  0 255 255 255  0  0  0 255 255 255  0  0  0 255 255 255  0  0  0 255 255 255  0  0  0 255 255 255  0  0  0 255 255 255  0  0  0 255 255 255  0  0  0 255 255 255
  0  0  0 255 255 255  0  0  0 255 255 255  0  0  0 255 255 255  0  0  0 255 255 255  0  0  0 255 255 255  0  0  0 255 255 255  0  0  0 255 255 255  0  0  0 255 255 255  0  0  0 255 255 255  0  0  0 255 255 255  0  0  0 255 255 255  0  0  0 255 255 255  0  0  0 255 255 255  0  0  0 255 255 255  0  0  0 255 255 255
  0  0  0 255 255 255  0  0  0 255 255 255  0  0  0 255 255 255  0  0  0 255 255 255  0  0  0 255 255 255  0  0  0 255 255 255  0  0  0 255 255 255  0  0  0 255 255 255  0  0  0 255 255 255  0  0  0 255 255 255  0  0  0 255 255 255  0  0  0 255 255 255  0  0  0 255 255 255  0  0  0 255 255 255  0  0  0 255 255 255
  0  0  0 255 255 255  0  0  0 255 255 255  0  0  0 255 255 255  0  0  0 255 255 255  0  0  0 255 255 255  0  0  0 255 255 255  0  0  0 255 255 255  0  0  0 255 255 255  0  0  0 255 255 255  0  0  0 255 255 255  0  0  0 255 255 255  0  0  0 255 255 255  0  0  0 255 255 255  0  0  0 255 255 255  0  0  0 255 255 255
  0  0  0 255 255 255  0  0  0 255 255 255  0  0  0 255 255 255  0  0  0 255 255 255  0  0  0 255 255 255  0  0  0 255 255 255  0  0  0 255 255 255  0  0  0 255 255 255  0  0  0 255 255 255  0  0  0 255 255 255  0  0  0 255 255 255  0  0  0 255 255 255  0  0  0 255 255 255  0  0  0 255 255 255  0  0  0 255 255 255
  0  0  0 255 255 255  0  0  0 255 255 255  0  0  0 255 255 255  0  0  0 255 255 255  0  0  0 255 255 255  0  0  0 255 255 255  0  0  0 255 255 255  0  0  0 255 255 255  0  0  0 255 255 255  0  0  0 255 255 255  0  0  0 255 255 255  0  0  0 255 255 255  0  0  0 255 255 255  0  0  0 255 255 255  0  0  0 255 255 255
  0  0  0 255 255 255  0  0  0 255 255 255  0  0  0 255 255 255  0  0  0 255 255 255  0  0  0 255 255 255  0  0  0 255 255 255  0  0  0 255 255 255  0  0  0 255 255 255  0  0  0 255 255 255  0  0  0 255 255 255  0  0  0 255 255 255  0  0  0 255 255 255  0  0  0 255 255 255  0  0  0 255 255 255  0  0  0 255 255 255
  0  0  0 255 255 255  0  0  0 255 255 255  0  0  0 255 255 255  0  0  0 255 255 255  0  0  0 255 255 255  0  0  0 255 255 255  0  0  0 255 255 255  0  0  0 255 255 255  0  0  0 255 255 255  0  0  0 255 255 255  0  0  0 255 255 255  0  0  0 255 255 255  0  0  0 255 255 255  0  0  0 255 255 255  0  0  0 255 255 255
  0  0  0 255 255 255  0  0  0 255 255 255  0  0  0 255 255 255  0  0  0 255 255 255  0  0  0 255 255 255  0  0  0 255 255 255  0  0  0 255 255 255  0  0  0 255 255 255  0  0  0 255 255 255  0  0  0 255 255 255  0  0  0 255 255 255  0  0  0 255 255 255  0  0  0 255 255 255  0  0  0 255 255 255  0  0  0 255 255 255
  0  0  0 255 255 255  0  0  0 255 255 255  0  0  0 255 255 255  0  0  0 255 255 255  0  0  0 255 255 255  0  0  0 255 255 255  0  0  0 255 255 255  0  0  0 255 255 255  0  0  0 255 255 255  0  0  0 255 255 255  0  0  0 255 255 255  0  0  0 255 255 255  0  0  0 255 255 255  0  0  0 255 255 255  0  0  0 255 255 255
