P3
# This is a black and white image.
40 30
255
  0  0  0 255 255 255  0  0  0 255 255 255  0  0  0 255 255 255  0  0  0 255 255 255  0  0  0 255 255 255  0  0  0 255 255 255  0  0  0 255 255 255  0  0  0 255 255 255  0  0  0 255 255 255  0  0  0 255 255 255  0  0  0 255 255 255  0  0  0 255 255 255  0  0  0 255 255 255  0  0  0 255 255 255  0  0  0 255 255 255  0  0  0 255 255 255  0  0  0 255 255 255  0  0  0 255 255 255  0  0  0 255 255 255  0  0  0 255 255 255
  0  0  0 255 255 255  0  0  0 255 255 255  0  0  0 255 255 255  0  0  0 255 255 255  0  0  0 255 255 255  0  0  0 255 255 255  0  0  0 255 255 255  0  0  0 255 255 255  0  0  0 255 255 255  0  0  0 255 255 255  0  0  0 255 255 255  0  0  0 255 255 255  0  0  0 255 255 255  0  0  0 255 255 255  0  0  0 255 255 255  0  0  0 255 255 255  0  0  0 255 255 255  0  0  0 255 255 255  0  0  0 255 255 255  0  0  0 255 255 255
  0  0  0 255 255 255  0  0  0 255 255 255  0  0  0 255 255 255  0  0  0 255 255 255  0  0  0 255 255 255  0  0  0 255 255 255  0  0  0 255 255 255  0  0  0 255 255 255  0  0  0 255 255 255  0  0  0 255 255 255  0  0  0 255 255 255  0  0  0 255 255 255  0  0  0 255 255 255  0  0  0 255 255 255  0  0  0 255 255 255  0  0  0 255 255 255  0  0  0 255 255 255  0  0  0 255 255 255  0  0  0 255 255 255  0  0  0 255 255 255
  0  0  0 255 255 255  0  0  0 255 255 255  0  0  0 255 255 255  0  0  0 255 255 255  0  0  0 255 255 255  0  0  0 255 255 255  0  0  0 255 255 255  0  0  0 255 255 255  0  0  0 255 255 255  0  0  0 255 255 255  0  0  0 255 255 255  0  0  0 255 255 255  0  0  0 255 255 255  0  0  0 255 255 255  0  0  0 255 255 255  0  0  0 255 255 255  0  0  0 255 255 255  0  0  0 255 255 255  0  0  0 255 255 255  0  0  0 255 255 255
  0  0  0 255 255 255  0  0  0 255 255 255  0  0  0 255 255 255  0  0  0 255 255 255  0  0  0 255 255 255  0  0  0 255 255 255  0  0  0 255 255 255  0  0  0 255 255 255  0  0  0 255 255 255  0  0  0 255 255 255  0  0  0 255 255 255  0  0  0 255 255 255  0  0  0 255 255 255  0  0  0 255 255 255  0  0  0 255 255 255  0  0  0 255 255 255  0  0  0 255 255 255  0  0  0 255 255 255  0  0  0 255 255 255  0  0  0 255 255 255
  0  0  0 255 255 255  0  0  0 255 255 255  0  0  0 255 255 255  0  0  0 255 255 255  0  0  0 255 255 255  0  0  0 255 255 255  0  0  0 255 255 255  0  0  0 255 255 255  0  0  0 255 255 255  0  0  0 255 255 255  0  0  0 255 255 255  0  0  0 255 255 255  0  0  0 255 255 255  0  0  0 255 255 255  0  0  0 255 255 255  0  0  0 255 255 255  0  0  0 255 255 255  0  0  0 255 255 255  0  0  0 255 255 255  0  0  0 255 255 255
  0  0  0 255 255 255  0  0  0 255 255 255  0  0  0 255 255 255  0  0  0 255 255 255  0  0  0 255 255 255  0  0  0 255 255 255  0  0  0 255 255 255  0  0  0 255 255 255  0  0  0 255 255 255  0  0  0 255 255 255  0  0  0 255 255 255  0  0  0 255 255 255  0  0  0 255 255 255  0  0  0 255 255 255  0  0  0 255 255 255  0  0  0 255 255 255  0  0  0 255 255 255  0  0  0 255 255 255  0  0  0 255 255 255  0  0  0 255 255 255
  0  0  0 255 255 255  0  0  0 255 255 255  0  0  0 255 255 255  0  0  0 255 255 255  0  0  0 255 255 255  0  0  0 255 255 255  0  0  0 255 255 255  0  0  0 255 255 255  0  0  0 255 255 255  0  0  0 255 255 255  0  0  0 255 255 255  0  0  0 255 255 255  0  0  0 255 255 255  0  0  0 255 255 255  0  0  0 255 255 255  0  0  0 255 255 255  0  0  0 255 255 255  0  0  0 255 255 255  0  0  0 255 255 255  0  0  0 255 255 255
  0  0  0 255 255 255  0  0  0 255 255 255  0  0  0 255 255 255  0  0  0 255 255 255  0  0  0 255 255 255  0  0  0 255 255 255  0  0  0 255 255 255  0  0  0 255 255 255  0  0  0 255 255 255  0  0  0 255 255 255  0  0  0 255 255 255  0  0  0 255 255 255  0  0  0 255 255 255  0  0  0 255 255 255  0  0  0 255 255 255  0  0  0 255 255 255  0  0  0 255 255 255  0  0  0 255 255 255  0  0  0 255 255 255  0  0  0 255 255 255
  0  0  0 255 255 255  0  0  0 255 255 255  0  0  0 255 255 255  0  0  0 255 255 255  0  0  0 255 255 255  0  0  0 255 255 255  0  0  0 255 255 255  0  0  0 255 255 255  0  0  0 255 255 255  0  0  0 255 255 255  0  0  0 255 255 255  0  0  0 255 255 255  0  0  0 255 255 255  0  0  0 255 255 255  0  0  0 255 255 255  0  0  0 255 255 255  0  0  0 255 255 255  0  0  0 255 255 255  0  0  0 255 255 255  0  0  0 255 255 255
  0  0  0 255 255 255  0  0  0 255 255 255  0  0  0 255 255 255  0  0  0 255 255 255  0  0  0 255 255 255  0  0  0 255 255 255  0  0  0 255 255 255  0  0  0 255 255 255  0  0  0 255 255 255  0  0  0 255 255 255  0  0  0 255 255 255  0  0  0 255 255 255  0  0  0 255 255 255  0  0  0 255 255 255  0  0  0 255 255 255  0  0  0 255 255 255  0  0  0 255 255 255  0  0  0 255 255 255  0  0  0 255 255 255  0  0  0 255 255 255
  0  0  0 255 255 255  0  0  0 255 255 255  0  0  0 255 255 255  0  0  0 255 255 255  0  0  0 255 255 255  0  0  0 255 255 255  0  0  0 255 255 255  0  0  0 255 255 255  0  0  0 255 255 255  0  0  0 255 255 255  0  0  0 255 255 255  0  0  0 255 255 255  0  0  0 255 255 255  0  0  0 255 255 255  0  0  0 255 255 255  0  0  0 255 255 255  0  0  0 255 255 255  0  0  0 255 255 255  0  0  0 255 255 255  0  0  0 255 255 255
  0  0  0 255 255 255  0  0  0 255 255 255  0  0  0 255 255 255  0  0  0 255 255 255  0  0  0 255 255 255  0  0  0 255 255 255  0  0  0 255 255 255  0  0  0 255 255 255  0  0  0 255 255 255  0  0  0 255 255 255  0  0  0 255 255 255  0  0  0 255 255 255  0  0  0 255 255 255  0  0  0 255 255 255  0  0  0 255 255 255  0  0  0 255 255 255  0  0  0 255 255 255  0  0  0 255 255 255  0  0  0 255 255 255  0  0  0 255 255 255
  0  0  0 255 255 255  0  0  0 255 255 255  0  0  0 255 255 255  0  0  0 255 255 255  0  0  0 255 255 255  0  0  0 255 255 255  0  0  0 255 255 255  0  0  0 255 255 255  0  0  0 255 255 255  0  0  0 255 255 255  0  0  0 255 255 255  0  0  0 255 255 255  0  0  0 255 255 255  0  0  0 255 255 255  0  0  0 255 255 255  0  0  0 255 255 255  0  0  0 255 255 255  0  0  0 255 255 255  0  0  0 255 255 255  0  0  0 255 255 255
  0  0  0 255 255 255  0  0  0 255 255 255  0  0  0 255 255 255  0  0  0 255 255 255  0  0  0 255 255 255  0  0  0 255 255 255  0  0  0 255 255 255  0  0  0 255 255 255  0  0  0 255 255 255  0  0  0 255 255 255  0  0  0 255 255 255  0  0  0 255 255 255  0  0  0 255 255 255  0  0  0 255 255 255  0  0  0 255 255 255  0  0  0 255 255 255  0  0  0 255 255 255  0  0  0 255 255 255  0  0  0 255 255 255  0  0  0 255 255 255
  0  0  0 255 255 255  0  0  0 255 255 255  0  0  0 255 255 255  0  0  0 255 255 255  0  0  0 255 255 255  0  0  0 255 255 255  0  0  0 255 255 255  0  0  0 255 255 255  0  0  0 255 255 255  0  0  0 255 255 255  0  0  0 255 255 255  0  0  0 255 255 255  0  0  0 255 255 255  0  0  0 255 255 255  0  0  0 255 255 255  0  0  0 255 255 255  0  0  0 255 255 255  0  0  0 255 255 255  0  0  0 255 255 255  0  0  0 255 255 255
  0  0  0 255 255 255  0  0  0 255 255 255  0  0  0 255 255 255  0  0  0 255 255 255  0  0  0 255 255 255  0  0  0 255 255 255  0  0  0 255 255 255  0  0  0 255 255 255  0  0  0 255 255 255  0  0  0 255 255 255  0  0  0 255 255 255  0  0  0 255 255 255  0  0  0 255 255 255  0  0  0 255 255 255  0  0  0 255 255 255  0  0  0 255 255 255  0  0  0 255 255 255  0  0  0 255 255 255  0  0  0 255 255 255  0  0  0 255 255 255
  0  0  0 255 255 255  0  0  0 255 255 255  0  0  0 255 255 255  0  0  0 255 255 255  0  0  0 255 255 255  0  0  0 255 255 255  0  0  0 255 255 255  0  0  0 255 255 255  0  0  0 255 255 255  0  0  0 255 255 255  0  0  0 255 255 255  0  0  0 255 255 255  0  0  0 255 255 255  0  0  0 255 255 255  0  0  0 255 255 255  0  0  0 255 255 255  0  0  0 255 255 255  0  0  0 255 255 255  0  0  0 255 255 255  0  0  0 255 255 255
  0  0  0 255 255 255  0  0  0 255 255 255  0  0  0 255 255 255  0  0  0 255 255 255  0  0  0 255 255 255  0  0  0 255 255 255  0  0  0 255 255 255  0  0  0 255 255 255  0  0  0 255 255 255  0  0  0 255 255 255  0  0  0 255 255 255  0  0  0 255 255 255  0  0  0 255 255 255  0  0  0 255 255 255  0  0  0 255 255 255  0  0  0 255 255 255  0  0  0 255 255 255  0  0  0 255 255 255  0  0  0 255 255 255  0  0  0 255 255 255
  0  0  0 255 255 255  0  0  0 255 255 255  0  0  0 255 255 255  0  0  0 255 255 255  0  0  0 255 255 255  0  0  0 255 255 255  0  0  0 255 255 255  0  0  0 255 255 255  0  0  0 255 255 255  0  0  0 255 255 255  0  0  0 255 255 255  0  0  0 255 255 255  0  0  0 255 255 255  0  0  0 255 255 255  0  0  0 255 255 255  0  0  0 255 255 255  0  0  0 255 255 255  0  0  0 255 255 255  0  0  0 255 255 255  0  0  0 255 255 255
  0  0  0 255 255 255  0  0  0 255 255 255  0  0  0 255 255 255  0  0  0 255 255 255  0  0  0 255 255 255  0  0  0 255 255 255  0  0  0 255 255 255  0  0  0 255 255 255  0  0  0 255 255 255  0  0  0 255 255 255  0  0  0 255 255 255  0  0  0 255 255 255  0  0  0 255 255 255  0  0  0 255 255 255  0  0  0 255 255 255  0  0  0 255 255 255  0  0  0 255 255 255  0  0  0 255 255 255  0  0  0 255 255 255  0  0  0 255 255 255
  0  0  0 255 255 255  0  0  0 255 255 255  0  0  0 255 255 255  0  0  0 255 255 255  0  0  0 255 255 255  0  0  0 255 255 255  0  0  0 255 255 255  0  0  0 255 255 255  0  0  0 255 255 255  0  0  0 255 255 255  0  0  0 255 255 255  0  0  0 255 255 255  0  0  0 255 255 255  0  0  0 255 255 255  0  0  0 255 255 255  0  0  0 255 255 255  0  0  0 255 255 255  0  0  0 255 255 255  0  0  0 255 255 255  0  0  0 255 255 255
  0  0  0 255 255 255  0  0  0 255 255 255  0  0  0 255 255 255  0  0  0 255 255 255  0  0  0 255 255 255  0  0  0 255 255 255  0  0  0 255 255 255  0  0  0 255 255 255  0  0  0 255 255 255  0  0  0 255 255 255  0  0  0 255 255 255  0  0  0 255 255 255  0  0  0 255 255 255  0  0  0 255 255 255  0  0  0 255 255 255  0  0  0 255 255 255  0  0  0 255 255 255  0  0  0 255 255 255  0  0  0 255 255 255  0  0  0 255 255 255
  0  0  0 255 255 255  0  0  0 255 255 255  0  0  0 255 255 255  0  0  0 255 255 255  0  0  0 255 255 255  0  0  0 255 255 255  0  0  0 255 255 255  0  0  0 255 255 255  0  0  0 255 255 255  0  0  0 255 255 255  0  0  0 255 255 255  0  0  0 255 255 255  0  0  0 255 255 255  0  0  0 255 255 255  0  0  0 255 255 255  0  0  0 255 255 255  0  0  0 255 255 255  0  0  0 255 255 255  0  0  0 255 255 255  0  0  0 255 255 255
  0  0  0 255 255 255  0  0  0 255 255 255  0  0  0 255 255 255  0  0  0 255 255 255  0  0  0 255 255 255  0  0  0 255 255 255  0  0  0 255 255 255  0  0  0 255 255 255  0  0  0 255 255 255  0  0  0 255 255 255  0  0  0 255 255 255  0  0  0 255 255 255  0  0  0 255 255 255  0  0  0 255 255 255  0  0  0 255 255 255  0  0  0 255 255 255  0  0  0 255 255 255  0  0  0 255 255 255  0  0  0 255 255 255  0  0  0 255 255 255
  0  0  0 255 255 255  0  0  0 255 255 255  0  0  0 255 255 255  0  0  0 255 255 255  0  0  0 255 255 255  0  0  0 255 255 255  0  0  0 255 255 255  0  0  0 255 255 255  0  0  0 255 255 255  0  0  0 255 255 255  0  0  0 255 255 255  0  0  0 255 255 255  0  0  0 255 255 255  0  0  0 255 255 255  0  0  0 255 255 255  0  0  0 255 255 255  0  0  0 255 255 255  0  0  0 255 255 255  0  0  0 255 255 255  0  0  0 255 255 255
  0  0  0 255 255 255  0  0  0 255 255 255  0  0  0 255 255 255  0  0  0 255 255 255  0  0  0 255 255 255  0  0  0 255 255 255  0  0  0 255 255 255  0  0  0 255 255 255  0  0  0 255 255 255  0  0  0 255 255 255  0  0  0 255 255 255  0  0  0 255 255 255  0  0  0 255 255 255  0  0  0 255 255 255  0  0  0 255 255 255  0  0  0 255 255 255  0  0  0 255 255 255  0  0  0 255 255 255  0  0  0 255 255 255  0  0  0 255 255 255
  0  0  0 255 255 255  0  0  0 255 255 255  0  0  0 255 255 255  0  0  0 255 255 255  0  0  0 255 255 255  0  0  0 255 255 255  0  0  0 255 255 255  0  0  0 255 255 255  0  0  0 255 255 255  0  0  0 255 255 255  0  0  0 255 255 255  0  0  0 255 255 255  0  0  0 255 255 255  0  0  0 255 255 255  0  0  0 255 255 255  0  0  0 255 255 255  0  0  0 255 255 255  0  0  0 255 255 255  0  0  0 255 255 255  0  0  0 255 255 255
  0  0  0 255 255 255  0  0  0 255 255 255  0  0  0 255 255 255  0  0  0 255 255 255  0  0  0 255 255 255  0  0  0 255 255 255  0  0  0 255 255 255  0  0  0 255 255 255  0  0  0 255 255 255  0  0  0 255 255 255  0  0  0 255 255 255  0  0  0 255 255 255  0  0  0 255 255 255  0  0  0 255 255 255  0  0  0 255 255 255  0  0  0 255 255 255  0  0  0 255 255 255  0  0  0 255 255 255  0  0  0 255 255 255  0  0  0 255 255 255
  0  0  0 255 255 255  0  0  0 255 255 255  0  0  0 255 255 255  0  0  0 255 255 255  0  0  0 255 255 255  0  0  0 255 255 255  0  0  0 255 255 255  0  0  0 255 255 255  0  0  0 255 255 255  0  0  0 255 255 255  0  0  0 255 255 255  0  0  0 255 255 255  0  0  0 255 255 255  0  0  0 255 255 255  0  0  0 255 255 255  0  0  0 255 255 255  0  0  0 255 255 255  0  0  0 255 255 255  0  0  0 255 255 255  0  0  0 255 255 255
