P3
# This is a image.
4 4
255
  0   0   0 255 255 255 255   0   0   0 255   0
  0   0 255 255 255   0 255   0 255   0 255 255
  0   0   0 255 255 255 127 127 127 200 100  45
255   0   0   0 255   0   0   0 255 255 255   0
