P3
# This is a image.
10 10
255
 55 100   0  55 100   0  55 100   0  55 100   0  55 100   0  55 100   0  55 100   0  55 100   0  55 100   0  55 100   0
 55 100   0  55 100   0  55 100   0  55 100   0  55 100   0  55 100   0  55 100   0  55 100   0  55 100   0  55 100   0
 55 100   0  55 100   0  55 100   0  55 100   0  55 100   0  55 100   0  55 100   0  55 100   0  55 100   0  55 100   0
 55 100   0  70   0 178  70   0 178  70   0 178  70   0 178  70   0 178  70   0 178  70   0 178  70   0 178 255 255 255
  0   0   0   0   0   0   0   0   0   0   0   0   0   0   0   0   0   0   0   0   0   0   0   0   0   0   0   0   0   0
  0   0   0   0   0   0   0   0   0   0   0   0   0   0   0   0   0   0   0   0   0   0   0   0   0   0   0   0   0   0
 70   0 178  70   0 178  70   0 178  70   0 178  70   0 178  70   0 178  70   0 178  70   0 178  70   0 178  70   0 178
 70   0 178  70   0 178  70   0 178   1   1   1   1   1   1   1   1   1   1   1   1   1   1   1   1   1   1   1   1   1
 70   0 178  70   0 178  70   0 178  70   0 178  70   0 178  70   0 178  70   0 178  70   0 178  70   0 178  70   0 178
 70   0 178  70   0 178  70   0 178   1   1   1   1   1   1   1   1   1   1   1   1   1   1   1   1   1   1   1   1   1
