P3
# Low resolution I-logo.
30 30
255
  0   0   0   0   0   0   0   0   0   0   0   0   0   0   0   0   0   0   0   0   0   0   0   0   0   0   0   0   0   0 125 126 129 185 185 186 223 223 224 234 234 234 241 241 241 241 241 241 234 234 234 223 223 224 185 185 186 125 126 129   0   0   0   0   0   0   0   0   0   0   0   0   0   0   0   0   0   0   0   0   0   0   0   0   0   0   0   0   0   0
  0   0   0   0   0   0   0   0   0   0   0   0   0   0   0   0   0   0   0   0   0  41  41  42 172 172 174 241 241 241 255 255 255 247 247 247 234 234 234 247 247 247 230 230 230 255 255 255 234 234 234 255 255 255 255 255 255 251 251 251 241 241 241 172 172 174  41  41  42   0   0   0   0   0   0   0   0   0   0   0   0   0   0   0   0   0   0   0   0   0
  0   0   0   0   0   0   0   0   0   0   0   0   0   0   0   0   0   0 137 138 140 241 241 241 255 255 255 230 230 230 241 241 241 230 230 230 223 223 224 234 234 234 234 234 234 247 247 247 230 230 230 255 255 255 234 234 234 230 230 230 241 241 241 251 251 251 241 241 241 137 138 140   0   0   0   0   0   0   0   0   0   0   0   0   0   0   0   0   0   0
  0   0   0   0   0   0   0   0   0   0   0   0   0   0   0 185 185 186 255 255 255 230 230 230 234 234 234 223 223 224 234 234 234 248 248 248 255 255 255 255 255 255 255 255 255 255 255 255 255 255 255 255 255 255 247 247 247 247 247 247 214 214 215 234 234 234 241 241 241 251 251 251 185 185 186   0   0   0   0   0   0   0   0   0   0   0   0   0   0   0
  0   0   0   0   0   0   0   0   0   0   0   0 199 199 200 255 255 255 223 223 224 251 251 251 234 234 234 255 255 255 255 255 255 255 255 255 255 255 255 255 255 255 255 255 255 255 255 255 255 255 255 255 255 255 255 255 255 255 255 255 255 255 255 248 248 248 230 230 230 230 230 230 255 255 255 199 199 200   0   0   0   0   0   0   0   0   0   0   0   0
  0   0   0   0   0   0   0   0   0 185 185 186 255 255 255 234 234 234 241 241 241 241 241 241 255 255 255 255 255 255 255 255 255 255 255 255 255 255 255 255 255 255 255 255 255 255 255 255 255 255 255 255 255 255 255 255 255 255 255 255 255 255 255 255 255 255 247 247 247 241 241 241 223 223 224 251 251 251 185 185 186   0   0   0   0   0   0   0   0   0
  0   0   0   0   0   0 137 138 140 255 255 255 234 234 234 223 223 224 255 255 255 255 255 255 255 255 255 255 255 255 255 255 255 255 255 255 255 255 255 255 255 255 255 255 255 255 255 255 255 255 255 255 255 255 255 255 255 255 255 255 255 255 255 255 255 255 255 255 255 251 251 251 223 223 224 247 247 247 255 255 255 137 138 140   0   0   0   0   0   0
  0   0   0  41  41  42 241 241 241 241 241 241 234 234 234 255 255 255 255 255 255 255 255 255 255 255 255 255 255 255 255 255 255 255 255 255 255 255 255 255 255 255 255 255 255 255 255 255 255 255 255 255 255 255 255 255 255 255 255 255 255 255 255 255 255 255 255 255 255 255 255 255 255 255 255 223 223 224 241 241 241 241 241 241  41  41  42   0   0   0
  0   0   0 172 172 174 255 255 255 223 223 224 234 234 234 255 255 255 188 207 185  45 120  34  67 131  55  89 142  81 116 158 109 116 158 109 230 230 230 255 255 255 255 255 255 255 255 255 255 255 255 255 255 255 255 255 255 255 255 255 234 234 234 247 247 247 255 255 255 255 255 255 255 255 255 241 241 241 230 230 230 255 255 255 172 172 174   0   0   0
  0   0   0 241 241 241 241 241 241 234 234 234 255 255 255 255 255 255 166 191 163  54 124  43  54 124  43  54 124  43  54 124  43  54 124  43 144 178 128 255 255 255 255 255 255 255 255 255 207 207 208 234 234 234 223 223 224 230 230 230 207 207 208 234 234 234 223 223 224 214 214 215 255 255 255 255 255 255 230 230 230 234 234 234 234 234 234   0   0   0
125 126 129 255 255 255 223 223 224 241 241 241 255 255 255 255 255 255 166 191 163  67 131  55  54 124  43  54 124  43  54 124  43  54 124  43  54 124  43 223 223 224 255 255 255 251 251 251 207 207 208 241 241 241 214 214 215 230 230 230 223 223 224 230 230 230 223 223 224 214 214 215 255 255 255 255 255 255 234 234 234 214 214 215 255 255 255 125 126 129
185 185 186 247 247 247 234 234 234 251 251 251 255 255 255 255 255 255 208 221 205  89 142  81  54 124  43  54 124  43  54 124  43  54 124  43  54 124  43 126 165 121 255 255 255 255 255 255 255 255 255 248 248 248 234 234 234 255 255 255 255 255 255 255 255 255 230 230 230 251 251 251 255 255 255 255 255 255 251 251 251 234 234 234 241 241 241 185 185 186
223 223 224 255 255 255 255 255 255 255 255 255 255 255 255 255 255 255 234 240 232 102 150  83  54 124  43  54 124  43  54 124  43  54 124  43  54 124  43  54 124  43 208 221 205 255 255 255 255 255 255 255 255 255 255 255 255 255 255 255 255 255 255 255 255 255 255 255 255 255 255 255 255 255 255 255 255 255 255 255 255 251 251 251 255 255 255 214 214 215
234 234 234 255 255 255 255 255 255 255 255 255 255 255 255 255 255 255 255 255 255 126 165 121  67 131  55  54 124  43  54 124  43  54 124  43  54 124  43  54 124  43 116 158 109 255 255 255 255 255 255 255 255 255 255 255 255 255 255 255 255 250 234 255 250 234 255 255 255 255 255 255 255 255 255 255 255 255 255 255 255 255 255 255 255 255 255 234 234 234
241 241 241 241 241 241 255 255 255 255 255 255 255 255 255 255 255 255 255 255 255 166 191 163  83 139  68  54 124  43  54 124  43  54 124  43  54 124  43  54 124  43  54 124  43 195 211 192 255 243 208 255 220  93 255 213  40 255 208   0 255 208   0 255 210   4 255 246 219 255 255 255 255 255 255 255 255 255 255 255 255 255 255 255 241 241 241 241 241 241
241 241 241 255 255 255 255 255 255 255 255 255 255 255 255 255 255 255 255 255 255 208 221 205 102 150  83  54 124  43  54 124  43  54 124  43  54 124  43  54 124  43  54 124  43  97 147  91 255 229 139 255 218  82 255 210   4 255 210   4 255 210   4 255 210   4 255 215  63 255 250 234 255 255 255 255 255 255 255 255 255 255 255 255 255 255 255 241 241 241
234 234 234 234 234 234 230 230 230 255 255 255 255 255 255 255 255 255 255 255 255 241 245 239 109 154  91  54 124  43  54 124  43  54 124  43  54 124  43  54 124  43  54 124  43  54 124  43 190 188  92 255 224 116 255 213  40 255 210   4 255 210   4 255 210   4 255 210   4 255 226 125 255 255 255 255 255 255 255 255 255 241 241 241 255 255 255 234 234 234
223 223 224 247 247 247 255 255 255 255 255 255 255 255 255 255 255 255 255 255 255 255 255 255 144 178 128  80 137  69  54 124  43  54 124  43  54 124  43  54 124  43  54 124  43  54 124  43  67 131  55 255 224 116 255 220  93 255 210   4 255 210   4 255 210   4 255 210   4 255 210   4 255 235 175 255 255 255 255 255 255 234 234 234 241 241 241 214 214 215
185 185 186 247 247 247 230 230 230 251 251 251 255 255 255 255 255 255 255 255 255 255 255 255 188 207 185  95 146  74  54 124  43  54 124  43  54 124  43  54 124  43  54 124  43  54 124  43  54 124  43 167 175  83 255 224 116 255 215  63 255 210   4 255 210   4 255 210   4 255 213  40 255 218  82 255 250 234 248 248 248 241 241 241 247 247 247 185 185 186
125 126 129 255 255 255 234 234 234 230 230 230 255 255 255 255 255 255 255 255 255 255 255 255 218 228 215 109 154  91  54 124  43  54 124  43  54 124  43  54 124  43  54 124  43  54 124  43  54 124  43  67 131  55 255 222 107 255 222 107 255 222 107 255 226 125 255 229 139 255 231 148 255 243 208 255 255 255 241 241 241 230 230 230 248 248 248 125 126 129
  0   0   0 241 241 241 234 234 234 234 234 234 255 255 255 255 255 255 255 255 255 255 255 255 248 248 248 109 154  91  67 131  55  54 124  43  54 124  43  67 131  55  89 142  81 109 154  91 126 165 121 144 178 128 255 224 116 255 229 139 255 231 148 255 231 148 255 235 175 255 244 209 255 255 255 255 255 255 223 223 224 241 241 241 234 234 234   0   0   0
  0   0   0 172 172 174 255 255 255 214 214 215 230 230 230 255 255 255 255 255 255 255 255 255 255 255 255 152 182 141 109 154  91 126 165 121 144 178 128 144 178 128 144 178 128 144 178 128 144 178 128 230 230 230 255 237 180 255 243 208 255 250 234 255 255 255 255 255 255 255 255 255 255 255 255 234 234 234 251 251 251 251 251 251 172 172 174   0   0   0
  0   0   0  41  41  42 241 241 241 234 234 234 248 248 248 241 241 241 255 255 255 255 255 255 255 255 255 195 211 192 135 172 117 144 178 128 144 178 128 152 182 141 188 207 185 208 221 205 234 240 232 255 255 255 255 255 255 255 255 255 255 255 255 255 255 255 255 255 255 255 255 255 247 247 247 241 241 241 234 234 234 241 241 241  41  41  42   0   0   0
  0   0   0   0   0   0 137 138 140 255 255 255 230 230 230 230 230 230 251 251 251 255 255 255 255 255 255 234 240 232 188 207 185 218 228 215 241 245 239 255 255 255 255 255 255 255 255 255 255 255 255 255 255 255 255 255 255 255 255 255 255 255 255 255 255 255 255 255 255 248 248 248 241 241 241 230 230 230 255 255 255 130 131 134   0   0   0   0   0   0
  0   0   0   0   0   0   0   0   0 185 185 186 251 251 251 241 241 241 230 230 230 241 241 241 255 255 255 255 255 255 255 255 255 255 255 255 255 255 255 255 255 255 255 255 255 255 255 255 255 255 255 255 255 255 255 255 255 255 255 255 255 255 255 255 255 255 247 247 247 234 234 234 214 214 215 251 251 251 185 185 186   0   0   0   0   0   0   0   0   0
  0   0   0   0   0   0   0   0   0   0   0   0 199 199 200 251 251 251 234 234 234 230 230 230 247 247 247 255 255 255 255 255 255 255 255 255 255 255 255 255 255 255 255 255 255 255 255 255 255 255 255 255 255 255 255 255 255 255 255 255 255 255 255 247 247 247 214 214 215 247 247 247 251 251 251 199 199 200   0   0   0   0   0   0   0   0   0   0   0   0
  0   0   0   0   0   0   0   0   0   0   0   0   0   0   0 185 185 186 255 255 255 241 241 241 234 234 234 214 214 215 248 248 248 241 241 241 255 255 255 255 255 255 255 255 255 255 255 255 255 255 255 255 255 255 251 251 251 241 241 241 234 234 234 234 234 234 247 247 247 251 251 251 185 185 186   0   0   0   0   0   0   0   0   0   0   0   0   0   0   0
  0   0   0   0   0   0   0   0   0   0   0   0   0   0   0   0   0   0 137 138 140 241 241 241 251 251 251 241 241 241 230 230 230 241 241 241 241 241 241 234 234 234 255 255 255 241 241 241 241 241 241 223 223 224 223 223 224 234 234 234 251 251 251 251 251 251 241 241 241 130 131 134   0   0   0   0   0   0   0   0   0   0   0   0   0   0   0   0   0   0
  0   0   0   0   0   0   0   0   0   0   0   0   0   0   0   0   0   0   0   0   0  41  41  42 172 172 174 234 234 234 255 255 255 241 241 241 247 247 247 241 241 241 255 255 255 234 234 234 241 241 241 241 241 241 248 248 248 255 255 255 234 234 234 172 172 174  41  41  42   0   0   0   0   0   0   0   0   0   0   0   0   0   0   0   0   0   0   0   0   0
  0   0   0   0   0   0   0   0   0   0   0   0   0   0   0   0   0   0   0   0   0   0   0   0   0   0   0   0   0   0 125 126 129 185 185 186 214 214 215 234 234 234 241 241 241 241 241 241 234 234 234 214 214 215 185 185 186 125 126 129   0   0   0   0   0   0   0   0   0   0   0   0   0   0   0   0   0   0   0   0   0   0   0   0   0   0   0   0   0   0
