P3
30 30
 13
  13  13  13  13  13  13  13  13  13  13  13  13  13  13  13  13  13  13  13  13  13  13  13  13  13  13  13  13  13  13  13  13  13  13  13  13  13  13  13  13  13  13  13  13  13  13  13  13  13  13  13  13  13  13  13  13  13  13  13  13  13  13  13  13  13  13  13  13  13  13  13  13  13  13  13  13  13  13  13  13  13  13  13  13  13  13  13  13  13  13
  13  13  13  13  13  13  13  13  13  13  13  13  13  13  13  13  13  13  13  13  13  13  13  13  13  13  13  13  13  13  13  13  13  13  13  13  13  13  13  13  13  13  13  13  13  13  13  13  13  13  13  13  13  13  13  13  13  13  13  13  13  13  13  13  13  13  13  13  13  13  13  13  13  13  13  13  13  13  13  13  13  13  13  13  13  13  13  13  13  13
  13  13  13  13  13  13  13  13  13  13  13  13  13  13  13  13  13  13  13  13  13  13  13  13  13  13  13  13  13  13  13  13  13  13  13  13   0   0   0   0   0   0   0   0   0   0   0   0   0   0   0   0   0   0   0   0   0  13  13  13  13  13  13  13  13  13  13  13  13  13  13  13  13  13  13  13  13  13  13  13  13  13  13  13  13  13  13  13  13  13
  13  13  13  13  13  13  13  13  13  13  13  13  13  13  13  13  13  13  13  13  13  13  13  13  13  13  13  13  13  13   0   0   0   0   0   0   0   0   0   0   0   0   0   0   0   0   0   0   0   0   0   0   0   0   0   0   0   0   0   0   0   0   0  13  13  13  13  13  13  13  13  13  13  13  13  13  13  13  13  13  13  13  13  13  13  13  13  13  13  13
  13  13  13  13  13  13  13  13  13  13  13  13  13  13  13  13  13  13  13  13  13  13  13  13   0   0   0   0   0   0   0   0   0   0   0   0   9   1   1   9   1   1   9   1   1   9   1   1   9   1   1   9   1   1   9   1   1   0   0   0   0   0   0   0   0   0   0   0   0  13  13  13  13  13  13  13  13  13  13  13  13  13  13  13  13  13  13  13  13  13
  13  13  13  13  13  13  13  13  13  13  13  13  13  13  13  13  13  13  13  13  13   0   0   0   0   0   0   0   0   0   9   1   1   9   1   1   9   1   1   9   1   1   9   1   1   9   1   1   9   1   1   9   1   1   9   1   1   9   1   1   9   1   1   0   0   0   0   0   0   0   0   0  13  13  13  13  13  13  13  13  13  13  13  13  13  13  13  13  13  13
  13  13  13  13  13  13  13  13  13  13  13  13  13  13  13  13  13  13   0   0   0   0   0   0   9   1   1   9   1   1   9   1   1   9   1   1   9   1   1   9   1   1   9   1   1   9   1   1   9   1   1   9   1   1   9   1   1   9   1   1   9   1   1   9   1   1   9   1   1   0   0   0   0   0   0  13  13  13  13  13  13  13  13  13  13  13  13  13  13  13
  13  13  13  13  13  13  13  13  13  13  13  13  13  13  13   0   0   0   0   0   0   9   1   1   9   1   1   9   1   1   9   1   1   9   1   1   3   3   8   3   3   8   3   3   8   3   3   8   3   3   8   9   1   1   9   1   1   9   1   1   9   1   1   9   1   1   9   1   1   9   1   1   0   0   0   0   0   0  13  13  13  13  13  13  13  13  13  13  13  13
  13  13  13  13  13  13  13  13  13  13  13  13  13  13  13   0   0   0   0   0   0   9   1   1   9   1   1   9   1   1   3   3   8   3   3   8   3   3   8   3   3   8   3   3   8   3   3   8   9   1   1   9   1   1   9   1   1   9   1   1   9   1   1   9   1   1   9   1   1   9   1   1   0   0   0   0   0   0  13  13  13  13  13  13  13  13  13  13  13  13
  13  13  13  13  13  13  13  13  13  13  13  13   0   0   0   0   0   0   9   1   1   9   1   1   9   1   1   3   3   8   3   3   8   0   0   0   9   1   1   9   1   1   9   1   1   9   1   1   9   1   1   9   1   1   9   1   1   9   1   1   9   1   1   9   1   1   9   1   1   9   1   1   9   1   1   0   0   0   0   0   0  13  13  13  13  13  13  13  13  13
  13  13  13  13  13  13  13  13  13  13  13  13   0   0   0   0   0   0   9   1   1   9   1   1   3   3   8   3   3   8   3   3   8   9   1   1   9   1   1   9   1   1   9   1   1   9   1   1   9   1   1   9   1   1   9   1   1   9   1   1   9   1   1   9   1   1   9   1   1   9   1   1   9   1   1   0   0   0   0   0   0  13  13  13  13  13  13  13  13  13
  13  13  13  13  13  13  13  13  13   0   0   0   0   0   0   9   1   1   9   1   1   9   1   1   3   3   8   9   1   1   9   1   1   9   1   1   9   1   1   9   1   1   9   1   1   9   1   1   9   1   1   9   1   1   9   1   1   9   1   1   9   1   1   9   1   1   9   1   1   9   1   1   9   1   1   9   1   1   0   0   0   0   0   0  13  13  13  13  13  13
  13  13  13  13  13  13  13  13  13   0   0   0   0   0   0   9   1   1   9   1   1   9   1   1   9   1   1   9   1   1   9   1   1   9   1   1   9   1   1   9   1   1   9   1   1   9   1   1   9   1   1   9   1   1   9   1   1   9   1   1   9   1   1   9   1   1   9   1   1   9   1   1   9   1   1   9   1   1   0   0   0   0   0   0  13  13  13  13  13  13
  13  13  13  13  13  13  13  13  13   0   0   0   0   0   0   9   1   1   9   1   1   9   1   1   9   1   1   9   1   1   9   1   1   9   1   1   9   1   1   9   1   1   9   1   1   9   1   1   9   1   1   9   1   1   9   1   1   9   1   1   9   1   1   9   1   1   9   1   1   9   1   1   9   1   1   9   1   1   0   0   0   0   0   0  13  13  13  13  13  13
  13  13  13  13  13  13  13  13  13   0   0   0   0   0   0   9   1   1   9   1   1   9   1   1   9   1   1   9   1   1   9   1   1   9   1   1   9   1   1   9   1   1   9   1   1   9   1   1   9   1   1   9   1   1   9   1   1   9   1   1   9   1   1   9   1   1   9   1   1   9   1   1   9   1   1   9   1   1   0   0   0   0   0   0  13  13  13  13  13  13
  13  13  13  13  13  13  13  13  13   0   0   0   0   0   0   9   1   1   9   1   1   9   1   1   2  13   2   9   1   1   9   1   1   9   1   1   9   1   1   9   1   1   9   1   1   9   1   1   9   1   1   9   1   1   9   1   1   9   1   1   9   1   1   9   1   1   9   1   1   9   1   1   9   1   1   9   1   1   0   0   0   0   0   0  13  13  13  13  13  13
  13  13  13  13  13  13  13  13  13   0   0   0   0   0   0   9   1   1   9   1   1   9   1   1   2  13   2   9   1   1   9   1   1   9   1   1   9   1   1   9   1   1   9   1   1   9   1   1   9   1   1   9   1   1   9   1   1   9   1   1   9   1   1   9   1   1   9   1   1   9   1   1   9   1   1   9   1   1   0   0   0   0   0   0  13  13  13  13  13  13
  13  13  13  13  13  13  13  13  13   0   0   0   0   0   0   9   1   1   9   1   1   9   1   1   2  13   2   2  13   2   9   1   1   9   1   1   9   1   1   9   1   1   9   1   1   9   1   1   9   1   1   9   1   1   9   1   1   9   1   1   9   1   1   9   1   1   9   1   1   9   1   1   9   1   1   9   1   1   0   0   0   0   0   0  13  13  13  13  13  13
  13  13  13  13  13  13  13  13  13  13  13  13   0   0   0   0   0   0   9   1   1   9   1   1   2  13   2   2  13   2   2  13   2   9   1   1   9   1   1   9   1   1   9   1   1   9   1   1   9   1   1   9   1   1   9   1   1   9   1   1   9   1   1   9   1   1   9   1   1   9   1   1   9   1   1   0   0   0   0   0   0  13  13  13  13  13  13  13  13  13
  13  13  13  13  13  13  13  13  13  13  13  13   0   0   0   0   0   0   9   1   1   9   1   1   9   1   1   2  13   2   2  13   2   2  13   2   9   1   1   9   1   1   9   1   1   9   1   1   9   1   1   9   1   1   9   1   1   9   1   1   9   1   1   9   1   1   9   1   1   9   1   1   9   1   1   0   0   0   0   0   0  13  13  13  13  13  13  13  13  13
  13  13  13  13  13  13  13  13  13  13  13  13  13  13  13   0   0   0   0   0   0   9   1   1   9   1   1   9   1   1   2  13   2   2  13   2   2  13   2   9   1   1   9   1   1   9   1   1   9   1   1   9   1   1   9   1   1   9   1   1   9   1   1   9   1   1   9   1   1   9   1   1   0   0   0   0   0   0  13  13  13  13  13  13  13  13  13  13  13  13
  13  13  13  13  13  13  13  13  13  13  13  13  13  13  13   0   0   0   0   0   0   9   1   1   9   1   1   9   1   1   9   1   1   2  13   2   2  13   2   2  13   2   2  13   2   9   1   1   9   1   1   9   1   1   9   1   1   9   1   1   9   1   1   9   1   1   9   1   1   9   1   1   0   0   0   0   0   0  13  13  13  13  13  13  13  13  13  13  13  13
  13  13  13  13  13  13  13  13  13  13  13  13  13  13  13  13  13  13   0   0   0   0   0   0   9   1   1   9   1   1   9   1   1   9   1   1   9   1   1   2  13   2   2  13   2   2  13   2   2  13   2   9   1   1   9   1   1   9   1   1   9   1   1   9   1   1   9   1   1   0   0   0   0   0   0  13  13  13  13  13  13  13  13  13  13  13  13  13  13  13
  13  13  13  13  13  13  13  13  13  13  13  13  13  13  13  13  13  13  13  13  13   0   0   0   0   0   0   0   0   0   9   1   1   9   1   1   9   1   1   9   1   1   9   1   1   9   1   1   9   1   1   9   1   1   9   1   1   9   1   1   9   1   1   0   0   0   0   0   0   0   0   0  13  13  13  13  13  13  13  13  13  13  13  13  13  13  13  13  13  13
  13  13  13  13  13  13  13  13  13  13  13  13  13  13  13  13  13  13  13  13  13  13  13  13   0   0   0   0   0   0   0   0   0   0   0   0   9   1   1   9   1   1   9   1   1   9   1   1   9   1   1   9   1   1   9   1   1   0   0   0   0   0   0   0   0   0   0   0   0  13  13  13  13  13  13  13  13  13  13  13  13  13  13  13  13  13  13  13  13  13
  13  13  13  13  13  13  13  13  13  13  13  13  13  13  13  13  13  13  13  13  13  13  13  13  13  13  13  13  13  13   0   0   0   0   0   0   0   0   0   0   0   0   0   0   0   0   0   0   0   0   0   0   0   0   0   0   0   0   0   0   0   0   0  13  13  13  13  13  13  13  13  13  13  13  13  13  13  13  13  13  13  13  13  13  13  13  13  13  13  13
  13  13  13  13  13  13  13  13  13  13  13  13  13  13  13  13  13  13  13  13  13  13  13  13  13  13  13  13  13  13  13  13  13  13  13  13   0   0   0   0   0   0   0   0   0   0   0   0   0   0   0   0   0   0   0   0   0  13  13  13  13  13  13  13  13  13  13  13  13  13  13  13  13  13  13  13  13  13  13  13  13  13  13  13  13  13  13  13  13  13
  13  13  13  13  13  13  13  13  13  13  13  13  13  13  13  13  13  13  13  13  13  13  13  13  13  13  13  13  13  13  13  13  13  13  13  13  13  13  13  13  13  13  13  13  13  13  13  13  13  13  13  13  13  13  13  13  13  13  13  13  13  13  13  13  13  13  13  13  13  13  13  13  13  13  13  13  13  13  13  13  13  13  13  13  13  13  13  13  13  13
  13  13  13  13  13  13  13  13  13  13  13  13  13  13  13  13  13  13  13  13  13  13  13  13  13  13  13  13  13  13  13  13  13  13  13  13  13  13  13  13  13  13  13  13  13  13  13  13  13  13  13  13  13  13  13  13  13  13  13  13  13  13  13  13  13  13  13  13  13  13  13  13  13  13  13  13  13  13  13  13  13  13  13  13  13  13  13  13  13  13
  13  13  13  13  13  13  13  13  13  13  13  13  13  13  13  13  13  13  13  13  13  13  13  13  13  13  13  13  13  13  13  13  13  13  13  13  13  13  13  13  13  13  13  13  13  13  13  13  13  13  13  13  13  13  13  13  13  13  13  13  13  13  13  13  13  13  13  13  13  13  13  13  13  13  13  13  13  13  13  13  13  13  13  13  13  13  13  13  13  13
