P3
30 30
 15
  15  15  15  15  15  15  15  15  15  15  15  15  15  15  15  15  15  15  15  15  15  15  15  15  15  15  15  15  15  15  15  15  15  15  15  15  15  15  15  15  15  15  15  15  15  15  15  15  15  15  15  15  15  15  15  15  15  15  15  15  15  15  15  15  15  15  15  15  15  15  15  15  15  15  15  15  15  15  15  15  15  15  15  15  15  15  15  15  15  15
  15  15  15  15  15  15  15  15  15  15  15  15  15  15  15  15  15  15  15  15  15  15  15  15  15  15  15  15  15  15  15  15  15  15  15  15  15  15  15  15  15  15  15  15  15  15  15  15  15  15  15  15  15  15  15  15  15  15  15  15  15  15  15  15  15  15  15  15  15  15  15  15  15  15  15  15  15  15  15  15  15  15  15  15  15  15  15  15  15  15
  15  15  15  15  15  15  15  15  15  15  15  15  15  15  15  15  15  15  15  15  15  15  15  15  15  15  15  15  15  15  15  15  15  15  15  15   0   0   0   0   0   0   0   0   0   0   0   0   0   0   0   0   0   0   0   0   0  15  15  15  15  15  15  15  15  15  15  15  15  15  15  15  15  15  15  15  15  15  15  15  15  15  15  15  15  15  15  15  15  15
  15  15  15  15  15  15  15  15  15  15  15  15  15  15  15  15  15  15  15  15  15  15  15  15  15  15  15  15  15  15   0   0   0   0   0   0   0   0   0   0   0   0   0   0   0   0   0   0   0   0   0   0   0   0   0   0   0   0   0   0   0   0   0  15  15  15  15  15  15  15  15  15  15  15  15  15  15  15  15  15  15  15  15  15  15  15  15  15  15  15
  15  15  15  15  15  15  15  15  15  15  15  15  15  15  15  15  15  15  15  15  15  15  15  15   0   0   0   0   0   0   0   0   0   0   0   0  14   1   1  14   1   1  14   1   1  14   1   1  14   1   1  14   1   1  14   1   1   0   0   0   0   0   0   0   0   0   0   0   0  15  15  15  15  15  15  15  15  15  15  15  15  15  15  15  15  15  15  15  15  15
  15  15  15  15  15  15  15  15  15  15  15  15  15  15  15  15  15  15  15  15  15   0   0   0   0   0   0   0   0   0  14   1   1  14   1   1  14   1   1  14   1   1  14   1   1  14   1   1  14   1   1  14   1   1  14   1   1  14   1   1  14   1   1   0   0   0   0   0   0   0   0   0  15  15  15  15  15  15  15  15  15  15  15  15  15  15  15  15  15  15
  15  15  15  15  15  15  15  15  15  15  15  15  15  15  15  15  15  15   0   0   0   0   0   0  14   1   1  14   1   1  14   1   1  14   1   1  14   1   1  14   1   1  14   1   1  14   1   1  14   1   1  14   1   1  14   1   1  14   1   1  14   1   1  14   1   1  14   1   1   0   0   0   0   0   0  15  15  15  15  15  15  15  15  15  15  15  15  15  15  15
  15  15  15  15  15  15  15  15  15  15  15  15  15  15  15   0   0   0   0   0   0  14   1   1  14   1   1  14   1   1  14   1   1  14   1   1   3   3  12   3   3  12   3   3  12   3   3  12   3   3  12  14   1   1  14   1   1  14   1   1  14   1   1  14   1   1  14   1   1  14   1   1   0   0   0   0   0   0  15  15  15  15  15  15  15  15  15  15  15  15
  15  15  15  15  15  15  15  15  15  15  15  15  15  15  15   0   0   0   0   0   0  14   1   1  14   1   1  14   1   1   3   3  12   3   3  12   3   3  12   3   3  12   3   3  12   3   3  12  14   1   1  14   1   1  14   1   1  14   1   1  14   1   1  14   1   1  14   1   1  14   1   1   0   0   0   0   0   0  15  15  15  15  15  15  15  15  15  15  15  15
  15  15  15  15  15  15  15  15  15  15  15  15   0   0   0   0   0   0  14   1   1  14   1   1  14   1   1   3   3  12   3   3  12   0   0   0  14   1   1  14   1   1  14   1   1  14   1   1  14   1   1  14   1   1  14   1   1  14   1   1  14   1   1  14   1   1  14   1   1  14   1   1  14   1   1   0   0   0   0   0   0  15  15  15  15  15  15  15  15  15
  15  15  15  15  15  15  15  15  15  15  15  15   0   0   0   0   0   0  14   1   1  14   1   1   3   3  12   3   3  12   3   3  12  14   1   1  14   1   1  14   1   1  14   1   1  14   1   1  14   1   1  14   1   1  14   1   1  14   1   1  14   1   1  14   1   1  14   1   1  14   1   1  14   1   1   0   0   0   0   0   0  15  15  15  15  15  15  15  15  15
  15  15  15  15  15  15  15  15  15   0   0   0   0   0   0  14   1   1  14   1   1  14   1   1   3   3  12  14   1   1  14   1   1  14   1   1  14   1   1  14   1   1  14   1   1  14   1   1  14   1   1  14   1   1  14   1   1  14   1   1  14   1   1  14   1   1  14   1   1  14   1   1  14   1   1  14   1   1   0   0   0   0   0   0  15  15  15  15  15  15
  15  15  15  15  15  15  15  15  15   0   0   0   0   0   0  14   1   1  14   1   1  14   1   1  14   1   1  14   1   1  14   1   1  14   1   1  14   1   1  14   1   1  14   1   1  14   1   1  14   1   1  14   1   1  14   1   1  14   1   1  14   1   1  14   1   1  14   1   1  14   1   1  14   1   1  14   1   1   0   0   0   0   0   0  15  15  15  15  15  15
  15  15  15  15  15  15  15  15  15   0   0   0   0   0   0  14   1   1  14   1   1  14   1   1  14   1   1  14   1   1  14   1   1  14   1   1  14   1   1  14   1   1  14   1   1  14   1   1  14   1   1  14   1   1  14   1   1  14   1   1  14   1   1  14   1   1  14   1   1  14   1   1  14   1   1  14   1   1   0   0   0   0   0   0  15  15  15  15  15  15
  15  15  15  15  15  15  15  15  15   0   0   0   0   0   0  14   1   1  14   1   1  14   1   1  14   1   1  14   1   1  14   1   1  14   1   1  14   1   1  14   1   1  14   1   1  14   1   1  14   1   1  14   1   1  14   1   1  14   1   1  14   1   1  14   1   1  14   1   1  14   1   1  14   1   1  14   1   1   0   0   0   0   0   0  15  15  15  15  15  15
  15  15  15  15  15  15  15  15  15   0   0   0   0   0   0  14   1   1  14   1   1  14   1   1   2  13   2  14   1   1  14   1   1  14   1   1  14   1   1  14   1   1  14   1   1  14   1   1  14   1   1  14   1   1  14   1   1  14   1   1  14   1   1  14   1   1  14   1   1  14   1   1  14   1   1  14   1   1   0   0   0   0   0   0  15  15  15  15  15  15
  15  15  15  15  15  15  15  15  15   0   0   0   0   0   0  14   1   1  14   1   1  14   1   1   2  13   2  14   1   1  14   1   1  14   1   1  14   1   1  14   1   1  14   1   1  14   1   1  14   1   1  14   1   1  14   1   1  14   1   1  14   1   1  14   1   1  14   1   1  14   1   1  14   1   1  14   1   1   0   0   0   0   0   0  15  15  15  15  15  15
  15  15  15  15  15  15  15  15  15   0   0   0   0   0   0  14   1   1  14   1   1  14   1   1   2  13   2   2  13   2  14   1   1  14   1   1  14   1   1  14   1   1  14   1   1  14   1   1  14   1   1  14   1   1  14   1   1  14   1   1  14   1   1  14   1   1  14   1   1  14   1   1  14   1   1  14   1   1   0   0   0   0   0   0  15  15  15  15  15  15
  15  15  15  15  15  15  15  15  15  15  15  15   0   0   0   0   0   0  14   1   1  14   1   1   2  13   2   2  13   2   2  13   2  14   1   1  14   1   1  14   1   1  14   1   1  14   1   1  14   1   1  14   1   1  14   1   1  14   1   1  14   1   1  14   1   1  14   1   1  14   1   1  14   1   1   0   0   0   0   0   0  15  15  15  15  15  15  15  15  15
  15  15  15  15  15  15  15  15  15  15  15  15   0   0   0   0   0   0  14   1   1  14   1   1  14   1   1   2  13   2   2  13   2   2  13   2  14   1   1  14   1   1  14   1   1  14   1   1  14   1   1  14   1   1  14   1   1  14   1   1  14   1   1  14   1   1  14   1   1  14   1   1  14   1   1   0   0   0   0   0   0  15  15  15  15  15  15  15  15  15
  15  15  15  15  15  15  15  15  15  15  15  15  15  15  15   0   0   0   0   0   0  14   1   1  14   1   1  14   1   1   2  13   2   2  13   2   2  13   2  14   1   1  14   1   1  14   1   1  14   1   1  14   1   1  14   1   1  14   1   1  14   1   1  14   1   1  14   1   1  14   1   1   0   0   0   0   0   0  15  15  15  15  15  15  15  15  15  15  15  15
  15  15  15  15  15  15  15  15  15  15  15  15  15  15  15   0   0   0   0   0   0  14   1   1  14   1   1  14   1   1  14   1   1   2  13   2   2  13   2   2  13   2   2  13   2  14   1   1  14   1   1  14   1   1  14   1   1  14   1   1  14   1   1  14   1   1  14   1   1  14   1   1   0   0   0   0   0   0  15  15  15  15  15  15  15  15  15  15  15  15
  15  15  15  15  15  15  15  15  15  15  15  15  15  15  15  15  15  15   0   0   0   0   0   0  14   1   1  14   1   1  14   1   1  14   1   1  14   1   1   2  13   2   2  13   2   2  13   2   2  13   2  14   1   1  14   1   1  14   1   1  14   1   1  14   1   1  14   1   1   0   0   0   0   0   0  15  15  15  15  15  15  15  15  15  15  15  15  15  15  15
  15  15  15  15  15  15  15  15  15  15  15  15  15  15  15  15  15  15  15  15  15   0   0   0   0   0   0   0   0   0  14   1   1  14   1   1  14   1   1  14   1   1  14   1   1  14   1   1  14   1   1  14   1   1  14   1   1  14   1   1  14   1   1   0   0   0   0   0   0   0   0   0  15  15  15  15  15  15  15  15  15  15  15  15  15  15  15  15  15  15
  15  15  15  15  15  15  15  15  15  15  15  15  15  15  15  15  15  15  15  15  15  15  15  15   0   0   0   0   0   0   0   0   0   0   0   0  14   1   1  14   1   1  14   1   1  14   1   1  14   1   1  14   1   1  14   1   1   0   0   0   0   0   0   0   0   0   0   0   0  15  15  15  15  15  15  15  15  15  15  15  15  15  15  15  15  15  15  15  15  15
  15  15  15  15  15  15  15  15  15  15  15  15  15  15  15  15  15  15  15  15  15  15  15  15  15  15  15  15  15  15   0   0   0   0   0   0   0   0   0   0   0   0   0   0   0   0   0   0   0   0   0   0   0   0   0   0   0   0   0   0   0   0   0  15  15  15  15  15  15  15  15  15  15  15  15  15  15  15  15  15  15  15  15  15  15  15  15  15  15  15
  15  15  15  15  15  15  15  15  15  15  15  15  15  15  15  15  15  15  15  15  15  15  15  15  15  15  15  15  15  15  15  15  15  15  15  15   0   0   0   0   0   0   0   0   0   0   0   0   0   0   0   0   0   0   0   0   0  15  15  15  15  15  15  15  15  15  15  15  15  15  15  15  15  15  15  15  15  15  15  15  15  15  15  15  15  15  15  15  15  15
  15  15  15  15  15  15  15  15  15  15  15  15  15  15  15  15  15  15  15  15  15  15  15  15  15  15  15  15  15  15  15  15  15  15  15  15  15  15  15  15  15  15  15  15  15  15  15  15  15  15  15  15  15  15  15  15  15  15  15  15  15  15  15  15  15  15  15  15  15  15  15  15  15  15  15  15  15  15  15  15  15  15  15  15  15  15  15  15  15  15
  15  15  15  15  15  15  15  15  15  15  15  15  15  15  15  15  15  15  15  15  15  15  15  15  15  15  15  15  15  15  15  15  15  15  15  15  15  15  15  15  15  15  15  15  15  15  15  15  15  15  15  15  15  15  15  15  15  15  15  15  15  15  15  15  15  15  15  15  15  15  15  15  15  15  15  15  15  15  15  15  15  15  15  15  15  15  15  15  15  15
  15  15  15  15  15  15  15  15  15  15  15  15  15  15  15  15  15  15  15  15  15  15  15  15  15  15  15  15  15  15  15  15  15  15  15  15  15  15  15  15  15  15  15  15  15  15  15  15  15  15  15  15  15  15  15  15  15  15  15  15  15  15  15  15  15  15  15  15  15  15  15  15  15  15  15  15  15  15  15  15  15  15  15  15  15  15  15  15  15  15
