P3
# This is a "coloured" image.
30 30
255
 255 255 255 255 255 255 255 255 255 255 255 255 255 255 255 255 255 255 255 255 255 255 255 255 255 255 255 255 255 255 255 255 255 255 255 255 255 255 255 255 255 255 255 255 255 255 255 255 255 255 255 255 255 255 255 255 255 255 255 255 255 255 255 255 255 255 255 255 255 255 255 255 255 255 255 255 255 255 255 255 255 255 255 255 255 255 255 255 255 255
 255 255 255 255 255 255 255 255 255 255 255 255 255 255 255 255 255 255 255 255 255 255 255 255 255 255 255 255 255 255 255 255 255 255 255 255 255 255 255 255 255 255 255 255 255 255 255 255 255 255 255 255 255 255 255 255 255 255 255 255 255 255 255 255 255 255 255 255 255 255 255 255 255 255 255 255 255 255 255 255 255 255 255 255 255 255 255 255 255 255
 255 255 255 255 255 255 255 255 255 255 255 255 255 255 255 255 255 255 255 255 255 255 255 255 255 255 255 255 255 255 255 255 255 255 255 255   0   0   0   0   0   0   0   0   0   0   0   0   0   0   0   0   0   0   0   0   0 255 255 255 255 255 255 255 255 255 255 255 255 255 255 255 255 255 255 255 255 255 255 255 255 255 255 255 255 255 255 255 255 255
 255 255 255 255 255 255 255 255 255 255 255 255 255 255 255 255 255 255 255 255 255 255 255 255 255 255 255 255 255 255   0   0   0   0   0   0   0   0   0   0   0   0   0   0   0   0   0   0   0   0   0   0   0   0   0   0   0   0   0   0   0   0   0 255 255 255 255 255 255 255 255 255 255 255 255 255 255 255 255 255 255 255 255 255 255 255 255 255 255 255
 255 255 255 255 255 255 255 255 255 255 255 255 255 255 255 255 255 255 255 255 255 255 255 255   0   0   0   0   0   0   0   0   0   0   0   0 254   1   1 254   1   1 254   1   1 254   1   1 254   1   1 254   1   1 254   1   1   0   0   0   0   0   0   0   0   0   0   0   0 255 255 255 255 255 255 255 255 255 255 255 255 255 255 255 255 255 255 255 255 255
 255 255 255 255 255 255 255 255 255 255 255 255 255 255 255 255 255 255 255 255 255   0   0   0   0   0   0   0   0   0 254   1   1 254   1   1 254   1   1 254   1   1 254   1   1 254   1   1 254   1   1 254   1   1 254   1   1 254   1   1 254   1   1   0   0   0   0   0   0   0   0   0 255 255 255 255 255 255 255 255 255 255 255 255 255 255 255 255 255 255
 255 255 255 255 255 255 255 255 255 255 255 255 255 255 255 255 255 255   0   0   0   0   0   0 254   1   1 254   1   1 254   1   1 254   1   1 254   1   1 254   1   1 254   1   1 254   1   1 254   1   1 254   1   1 254   1   1 254   1   1 254   1   1 254   1   1 254   1   1   0   0   0   0   0   0 255 255 255 255 255 255 255 255 255 255 255 255 255 255 255
 255 255 255 255 255 255 255 255 255 255 255 255 255 255 255   0   0   0   0   0   0 254   1   1 254   1   1 254   1   1 254   1   1 254   1   1   3   3 252   3   3 252   3   3 252   3   3 252   3   3 252 254   1   1 254   1   1 254   1   1 254   1   1 254   1   1 254   1   1 254   1   1   0   0   0   0   0   0 255 255 255 255 255 255 255 255 255 255 255 255
 255 255 255 255 255 255 255 255 255 255 255 255 255 255 255   0   0   0   0   0   0 254   1   1 254   1   1 254   1   1   3   3 252   3   3 252   3   3 252   3   3 252   3   3 252   3   3 252 254   1   1 254   1   1 254   1   1 254   1   1 254   1   1 254   1   1 254   1   1 254   1   1   0   0   0   0   0   0 255 255 255 255 255 255 255 255 255 255 255 255
 255 255 255 255 255 255 255 255 255 255 255 255   0   0   0   0   0   0 254   1   1 254   1   1 254   1   1   3   3 252   3   3 252   0   0   0 254   1   1 254   1   1 254   1   1 254   1   1 254   1   1 254   1   1 254   1   1 254   1   1 254   1   1 254   1   1 254   1   1 254   1   1 254   1   1   0   0   0   0   0   0 255 255 255 255 255 255 255 255 255
 255 255 255 255 255 255 255 255 255 255 255 255   0   0   0   0   0   0 254   1   1 254   1   1   3   3 252   3   3 252   3   3 252 254   1   1 254   1   1 254   1   1 254   1   1 254   1   1 254   1   1 254   1   1 254   1   1 254   1   1 254   1   1 254   1   1 254   1   1 254   1   1 254   1   1   0   0   0   0   0   0 255 255 255 255 255 255 255 255 255
 255 255 255 255 255 255 255 255 255   0   0   0   0   0   0 254   1   1 254   1   1 254   1   1   3   3 252 254   1   1 254   1   1 254   1   1 254   1   1 254   1   1 254   1   1 254   1   1 254   1   1 254   1   1 254   1   1 254   1   1 254   1   1 254   1   1 254   1   1 254   1   1 254   1   1 254   1   1   0   0   0   0   0   0 255 255 255 255 255 255
 255 255 255 255 255 255 255 255 255   0   0   0   0   0   0 254   1   1 254   1   1 254   1   1 254   1   1 254   1   1 254   1   1 254   1   1 254   1   1 254   1   1 254   1   1 254   1   1 254   1   1 254   1   1 254   1   1 254   1   1 254   1   1 254   1   1 254   1   1 254   1   1 254   1   1 254   1   1   0   0   0   0   0   0 255 255 255 255 255 255
 255 255 255 255 255 255 255 255 255   0   0   0   0   0   0 254   1   1 254   1   1 254   1   1 254   1   1 254   1   1 254   1   1 254   1   1 254   1   1 254   1   1 254   1   1 254   1   1 254   1   1 254   1   1 254   1   1 254   1   1 254   1   1 254   1   1 254   1   1 254   1   1 254   1   1 254   1   1   0   0   0   0   0   0 255 255 255 255 255 255
 255 255 255 255 255 255 255 255 255   0   0   0   0   0   0 254   1   1 254   1   1 254   1   1 254   1   1 254   1   1 254   1   1 254   1   1 254   1   1 254   1   1 254   1   1 254   1   1 254   1   1 254   1   1 254   1   1 254   1   1 254   1   1 254   1   1 254   1   1 254   1   1 254   1   1 254   1   1   0   0   0   0   0   0 255 255 255 255 255 255
 255 255 255 255 255 255 255 255 255   0   0   0   0   0   0 254   1   1 254   1   1 254   1   1   2 253   2 254   1   1 254   1   1 254   1   1 254   1   1 254   1   1 254   1   1 254   1   1 254   1   1 254   1   1 254   1   1 254   1   1 254   1   1 254   1   1 254   1   1 254   1   1 254   1   1 254   1   1   0   0   0   0   0   0 255 255 255 255 255 255
 255 255 255 255 255 255 255 255 255   0   0   0   0   0   0 254   1   1 254   1   1 254   1   1   2 253   2 254   1   1 254   1   1 254   1   1 254   1   1 254   1   1 254   1   1 254   1   1 254   1   1 254   1   1 254   1   1 254   1   1 254   1   1 254   1   1 254   1   1 254   1   1 254   1   1 254   1   1   0   0   0   0   0   0 255 255 255 255 255 255
 255 255 255 255 255 255 255 255 255   0   0   0   0   0   0 254   1   1 254   1   1 254   1   1   2 253   2   2 253   2 254   1   1 254   1   1 254   1   1 254   1   1 254   1   1 254   1   1 254   1   1 254   1   1 254   1   1 254   1   1 254   1   1 254   1   1 254   1   1 254   1   1 254   1   1 254   1   1   0   0   0   0   0   0 255 255 255 255 255 255
 255 255 255 255 255 255 255 255 255 255 255 255   0   0   0   0   0   0 254   1   1 254   1   1   2 253   2   2 253   2   2 253   2 254   1   1 254   1   1 254   1   1 254   1   1 254   1   1 254   1   1 254   1   1 254   1   1 254   1   1 254   1   1 254   1   1 254   1   1 254   1   1 254   1   1   0   0   0   0   0   0 255 255 255 255 255 255 255 255 255
 255 255 255 255 255 255 255 255 255 255 255 255   0   0   0   0   0   0 254   1   1 254   1   1 254   1   1   2 253   2   2 253   2   2 253   2 254   1   1 254   1   1 254   1   1 254   1   1 254   1   1 254   1   1 254   1   1 254   1   1 254   1   1 254   1   1 254   1   1 254   1   1 254   1   1   0   0   0   0   0   0 255 255 255 255 255 255 255 255 255
 255 255 255 255 255 255 255 255 255 255 255 255 255 255 255   0   0   0   0   0   0 254   1   1 254   1   1 254   1   1   2 253   2   2 253   2   2 253   2 254   1   1 254   1   1 254   1   1 254   1   1 254   1   1 254   1   1 254   1   1 254   1   1 254   1   1 254   1   1 254   1   1   0   0   0   0   0   0 255 255 255 255 255 255 255 255 255 255 255 255
 255 255 255 255 255 255 255 255 255 255 255 255 255 255 255   0   0   0   0   0   0 254   1   1 254   1   1 254   1   1 254   1   1   2 253   2   2 253   2   2 253   2   2 253   2 254   1   1 254   1   1 254   1   1 254   1   1 254   1   1 254   1   1 254   1   1 254   1   1 254   1   1   0   0   0   0   0   0 255 255 255 255 255 255 255 255 255 255 255 255
 255 255 255 255 255 255 255 255 255 255 255 255 255 255 255 255 255 255   0   0   0   0   0   0 254   1   1 254   1   1 254   1   1 254   1   1 254   1   1   2 253   2   2 253   2   2 253   2   2 253   2 254   1   1 254   1   1 254   1   1 254   1   1 254   1   1 254   1   1   0   0   0   0   0   0 255 255 255 255 255 255 255 255 255 255 255 255 255 255 255
 255 255 255 255 255 255 255 255 255 255 255 255 255 255 255 255 255 255 255 255 255   0   0   0   0   0   0   0   0   0 254   1   1 254   1   1 254   1   1 254   1   1 254   1   1 254   1   1 254   1   1 254   1   1 254   1   1 254   1   1 254   1   1   0   0   0   0   0   0   0   0   0 255 255 255 255 255 255 255 255 255 255 255 255 255 255 255 255 255 255
 255 255 255 255 255 255 255 255 255 255 255 255 255 255 255 255 255 255 255 255 255 255 255 255   0   0   0   0   0   0   0   0   0   0   0   0 254   1   1 254   1   1 254   1   1 254   1   1 254   1   1 254   1   1 254   1   1   0   0   0   0   0   0   0   0   0   0   0   0 255 255 255 255 255 255 255 255 255 255 255 255 255 255 255 255 255 255 255 255 255
 255 255 255 255 255 255 255 255 255 255 255 255 255 255 255 255 255 255 255 255 255 255 255 255 255 255 255 255 255 255   0   0   0   0   0   0   0   0   0   0   0   0   0   0   0   0   0   0   0   0   0   0   0   0   0   0   0   0   0   0   0   0   0 255 255 255 255 255 255 255 255 255 255 255 255 255 255 255 255 255 255 255 255 255 255 255 255 255 255 255
 255 255 255 255 255 255 255 255 255 255 255 255 255 255 255 255 255 255 255 255 255 255 255 255 255 255 255 255 255 255 255 255 255 255 255 255   0   0   0   0   0   0   0   0   0   0   0   0   0   0   0   0   0   0   0   0   0 255 255 255 255 255 255 255 255 255 255 255 255 255 255 255 255 255 255 255 255 255 255 255 255 255 255 255 255 255 255 255 255 255
 255 255 255 255 255 255 255 255 255 255 255 255 255 255 255 255 255 255 255 255 255 255 255 255 255 255 255 255 255 255 255 255 255 255 255 255 255 255 255 255 255 255 255 255 255 255 255 255 255 255 255 255 255 255 255 255 255 255 255 255 255 255 255 255 255 255 255 255 255 255 255 255 255 255 255 255 255 255 255 255 255 255 255 255 255 255 255 255 255 255
 255 255 255 255 255 255 255 255 255 255 255 255 255 255 255 255 255 255 255 255 255 255 255 255 255 255 255 255 255 255 255 255 255 255 255 255 255 255 255 255 255 255 255 255 255 255 255 255 255 255 255 255 255 255 255 255 255 255 255 255 255 255 255 255 255 255 255 255 255 255 255 255 255 255 255 255 255 255 255 255 255 255 255 255 255 255 255 255 255 255
 255 255 255 255 255 255 255 255 255 255 255 255 255 255 255 255 255 255 255 255 255 255 255 255 255 255 255 255 255 255 255 255 255 255 255 255 255 255 255 255 255 255 255 255 255 255 255 255 255 255 255 255 255 255 255 255 255 255 255 255 255 255 255 255 255 255 255 255 255 255 255 255 255 255 255 255 255 255 255 255 255 255 255 255 255 255 255 255 255 255
