P1
# Up arrow, high and tiny.
11 35
00000100000
00001110000
00011111000
00111111100
01111111110
11111111111
00001110000
00001110000
00001110000
00001110000
00001110000
00001110000
00001110000
00001110000
00001110000
00001110000
00001110000
00001110000
00001110000
00001110000
00001110000
00001110000
00001110000
00001110000
00001110000
00001110000
00001110000
00001110000
00001110000
00001110000
00001110000
00001110000
00001110000
00001110000
00001110000
